<svg version="1.1" xmlns="http://www.w3.org/2000/svg" xmlns:xlink="http://www.w3.org/1999/xlink" style="width: 1em; height: 1em;vertical-align: middle;fill: currentColor;overflow: hidden;" fill='none' viewBox="0 0 1000 1000" xml:space="preserve">
<g><path d="M500,10C229.4,10,10,229.4,10,500c0,270.6,219.4,487,490,490c270.2,3,485.3-188.6,490-490C994.1,229.4,770.6,10,500,10z M500,914.6C271,914.6,85.4,729,85.4,500C85.4,271,271,85.4,500,85.4c229,0,414.6,185.6,414.6,414.6C914.6,729,728.9,914.6,500,914.6z M236.1,367c0-41.6,33.8-75.4,75.4-75.4c41.6,0,75.4,33.8,75.4,75.4c0,41.6-33.8,75.4-75.4,75.4C269.9,442.4,236.1,408.6,236.1,367z M613,367c0-41.6,33.8-75.4,75.4-75.4c41.6,0,75.4,33.8,75.4,75.4c0,41.6-33.7,75.4-75.4,75.4C646.8,442.4,613,408.6,613,367z M754.2,596.4c0,7.3-2,14.2-5.4,20.1c-41.3,103.8-132.2,171-248.8,171c-115.1,0-205.1-67.6-247.8-169.2c-3-4.5-5-9.7-6-15.3c0,0-0.6-5-0.5-6.6c0.4-22,17.7-39.8,39.5-39.8c19.9,0,36.4,14.8,39.1,34.1c27.9,69.1,96.6,121.5,175.7,121.5c79.1,0,148-54.4,176-123.5c3.6-18.2,19.6-32,38.8-32C736.5,556.7,754.2,574.5,754.2,596.4z" fill='white'/></g>
</svg>
